:SAMPLES-PER-SECOND 30
:FULLY-SPECIFIED
:DEGREES
198
root  67.9244 38.886 -6.62295 -166.758 -70.4901 162.481
RightUpLeg  -15.3683 1.1155 -9.16023
RightLeg  29.3491 3.57677 1.93775
RightFoot  -10.514 -0.0817585 1.43038
RightToes  -1.16417e-010 0 -3.6325e-017
Spine  19.5044 -7.59137 1.83809
Spine1  8.19791 -9.76195 7.16268
HEad  -27.0665 30.969 -23.1868
LeftShoulder1  11.0546 -17.1382 -46.719
LeftArm  16.9619 -2.74007 -35.5377
LeftForeArm  151.413 -75.567 -139.379
LeftHand  -0.244104 0.0205437 5.32207
RightShoulder  5.18174 10.1194 32.0949
RightArm  -13.4737 -38.6221 40.6889
RightForeArm  131.474 57.8568 160.962
RightHand  -5.72863 14.1163 -33.4877
LeftUpLeg  -1.36198 29.8338 7.07507
LeftLeg  21.5729 8.95707 4.22972
LeftFoot  -9.32842 0.215517 -9.07287
LeftToes  -2.09216e-011 1.96776e-011 -5.83545e-012
199
root  68.0397 38.7689 -6.67179 -165.894 -72.5344 161.532
RightUpLeg  -15.5189 0.0736067 -8.83229
RightLeg  30.4353 2.60043 1.40981
RightFoot  -10.9254 -0.0777429 1.04925
RightToes  -1.16417e-010 0 -3.6325e-017
Spine  19.7476 -7.64337 1.79527
Spine1  8.28362 -10.0876 8.217
HEad  -27.0117 29.8085 -23.112
LeftShoulder1  10.8167 -16.7015 -46.7033
LeftArm  15.9046 -7.14917 -32.5839
LeftForeArm  162.128 -72.4506 -148.393
LeftHand  -0.244104 0.0205437 5.32207
RightShoulder  5.33184 10.3043 32.6726
RightArm  -12.6989 -37.6026 40.8098
RightForeArm  131.897 56.419 161.935
RightHand  -6.7317 16.1153 -35.5025
LeftUpLeg  -2.81441 28.408 7.1801
LeftLeg  23.2465 8.07908 4.11882
LeftFoot  -9.52981 0.195172 -8.7336
LeftToes  -2.09216e-011 1.96776e-011 -5.83545e-012
200
root  68.1398 38.7725 -6.72068 -163.591 -75.1384 159.357
RightUpLeg  -15.2321 -1.73117 -8.64977
RightLeg  30.4211 1.79584 0.898259
RightFoot  -10.7955 -0.0763776 0.703961
RightToes  -1.16417e-010 0 -3.6325e-017
Spine  19.7157 -7.65646 1.72388
Spine1  7.88989 -10.3573 9.38584
HEad  -26.7212 28.302 -22.8284
LeftShoulder1  10.694 -16.5889 -46.4253
LeftArm  14.3353 -12.8078 -29.487
LeftForeArm  168.112 -69.6671 -153.618
LeftHand  -0.244104 0.0205437 5.32207
RightShoulder  5.39422 10.1386 33.5951
RightArm  -10.6747 -33.7108 39.9052
RightForeArm  133.728 55.1405 162.837
RightHand  -8.00719 18.5628 -37.6873
LeftUpLeg  -3.92621 27.0842 7.07964
LeftLeg  23.413 6.72568 3.51619
LeftFoot  -8.9836 0.224491 -8.29746
LeftToes  -2.09216e-011 1.96776e-011 -5.83545e-012
201
root  68.2276 38.9094 -6.77757 -159.196 -77.9701 155.291
RightUpLeg  -14.4605 -4.26127 -8.63787
RightLeg  29.1411 1.33632 0.567109
RightFoot  -10.1074 -0.0758787 0.613437
RightToes  -1.16417e-010 0 -3.6325e-017
Spine  19.2263 -7.37738 1.84342
Spine1  7.49884 -10.2153 10.3101
HEad  -26.083 26.1193 -22.2663
LeftShoulder1  10.607 -16.7972 -45.5471
LeftArm  11.9759 -19.4614 -26.8864
LeftForeArm  169.423 -68.2854 -155.521
LeftHand  -0.244104 0.0205437 5.32207
RightShoulder  5.4574 9.98101 34.5152
RightArm  -8.76963 -27.5186 38.6257
RightForeArm  136.1 53.9379 163.684
RightHand  -9.92542 21.9863 -40.5596
LeftUpLeg  -4.54607 26.1092 6.81529
LeftLeg  22.0037 4.95069 2.53441
LeftFoot  -7.70312 0.297576 -7.91123
LeftToes  -2.09216e-011 1.96776e-011 -5.83545e-012
202
root  68.3136 39.1415 -6.84703 -151.654 -80.6889 148.411
RightUpLeg  -13.5533 -7.23727 -8.66906
RightLeg  26.8722 1.26992 0.464925
RightFoot  -8.90609 -0.0779847 0.643084
RightToes  -1.16417e-010 0 -3.6325e-017
Spine  18.4539 -6.71758 2.04164
Spine1  6.82878 -9.63314 11.2155
HEad  -24.9239 23.1757 -21.3794
LeftShoulder1  10.4819 -17.0127 -44.4804
LeftArm  8.03191 -27.1196 -24.6591
LeftForeArm  166.159 -69.1192 -154.052
LeftHand  -0.244104 0.0205437 5.32207
RightShoulder  5.42856 9.98798 34.2789
RightArm  -8.10329 -18.9891 38.2681
RightForeArm  137.978 53.7974 163.924
RightHand  -12.2101 25.4128 -43.9098
LeftUpLeg  -4.96297 25.6563 6.38264
LeftLeg  19.4168 2.80195 1.46045
LeftFoot  -5.8147 0.406234 -7.6837
LeftToes  -2.09216e-011 1.96776e-011 -5.83545e-012
203
root  68.4125 39.4024 -6.9066 -138.957 -83.1088 136.677
RightUpLeg  -12.7945 -10.4569 -8.61825
RightLeg  24.1288 1.50685 0.501716
RightFoot  -7.39025 -0.0725154 0.592501
RightToes  -1.16417e-010 0 -3.6325e-017
Spine  17.6133 -6.90403 3.3618
Spine1  5.53674 -9.10289 9.57181
HEad  -23.2658 20.8072 -19.0722
LeftShoulder1  9.64807 -16.7316 -41.3374
LeftArm  1.14525 -34.5064 -23.0966
LeftForeArm  159.838 -72.1125 -148.593
LeftHand  -0.244104 0.0205437 5.32207
RightShoulder  5.72516 10.5647 34.7407
RightArm  -7.92667 -6.30286 38.0139
RightForeArm  137.663 57.3966 161.853
RightHand  -14.3149 27.9259 -47.2003
LeftUpLeg  -5.39373 24.8072 5.88552
LeftLeg  16.2287 1.21431 0.443455
LeftFoot  -3.6048 0.533616 -7.56504
LeftToes  -2.09216e-011 1.96776e-011 -5.83545e-012
204
root  68.5507 39.6322 -6.92326 -122.251 -84.7446 120.864
RightUpLeg  -12.1681 -13.2409 -8.50357
RightLeg  21.3935 1.83819 0.635107
RightFoot  -5.8027 -0.0613759 0.456542
RightToes  -1.16417e-010 0 -3.6325e-017
Spine  17.8962 -6.91499 3.88506
Spine1  2.62091 -8.70142 9.35029
HEad  -20.6437 19.0397 -17.3857
LeftShoulder1  9.17122 -16.354 -39.9299
LeftArm  -9.0638 -40.8174 -20.1057
LeftForeArm  152.779 -76.3376 -137.205
LeftHand  -0.244104 0.0205437 5.32207
RightShoulder  5.70054 10.9189 33.5775
RightArm  -7.33992 10.9735 38.8366
RightForeArm  130.791 67.3035 151.443
RightHand  -14.1692 27.2772 -47.6097
LeftUpLeg  -5.40605 21.2429 5.8736
LeftLeg  12.8909 2.90155 -0.838987
LeftFoot  -1.5018 0.643953 -7.37275
LeftToes  -2.09216e-011 1.96776e-011 -5.83545e-012
205
root  68.7438 39.8028 -6.89273 -112.812 -85.2814 111.966
RightUpLeg  -11.687 -14.2582 -8.47924
RightLeg  18.9856 1.78103 0.926774
RightFoot  -4.27082 -0.0487895 0.319664
RightToes  -1.16417e-010 0 -3.6325e-017
Spine  18.6965 -6.42392 4.47197
Spine1  -0.216882 -7.70991 8.77862
HEad  -17.6461 17.4025 -16.3058
LeftShoulder1  8.88222 -16.2784 -38.7081
LeftArm  -20.6693 -45.6733 -18.2582
LeftForeArm  145.534 -80.1995 -116.642
LeftHand  -0.244104 0.0205437 5.32207
RightShoulder  5.40219 11.001 31.2899
RightArm  -6.52433 30.299 40.6968
RightForeArm  84.1532 78.5078 98.5174
RightHand  -9.54714 19.9516 -41.6195
LeftUpLeg  -4.77202 16.2926 6.30266
LeftLeg  9.61041 7.26029 -2.25449
LeftFoot  0.185101 0.707246 -7.01495
LeftToes  -2.09216e-011 1.96776e-011 -5.83545e-012
206
root  68.9578 39.9176 -6.84718 -118.013 -85.1256 117.524
RightUpLeg  -11.5749 -13.7235 -8.43392
RightLeg  17.0718 1.63126 1.28412
RightFoot  -2.87669 -0.0329012 0.180467
RightToes  -1.16417e-010 0 -3.6325e-017
Spine  19.0584 -5.12815 5.78329
Spine1  -1.53506 -5.67411 6.6899
HEad  -15.493 15.2515 -15.325
LeftShoulder1  8.819 -16.6643 -37.578
LeftArm  -31.1692 -49.9364 -19.4097
LeftForeArm  136.796 -81.8088 -93.3028
LeftHand  -0.244104 0.0205437 5.32207
RightShoulder  4.86011 10.8887 27.7468
RightArm  -6.45891 47.3289 42.4663
RightForeArm  17.4913 65.0214 23.454
RightHand  -3.4823 7.53991 -30.8051
LeftUpLeg  -3.95104 12.0176 6.68225
LeftLeg  6.68358 12.2412 -3.44327
LeftFoot  1.44334 0.727679 -6.56949
LeftToes  -2.09216e-011 1.96776e-011 -5.83545e-012
207
root  69.1263 39.9916 -6.82543 -125.3 -84.8311 125.241
RightUpLeg  -11.7916 -13.0162 -8.27275
RightLeg  15.7017 1.58348 1.5558
RightFoot  -1.79024 -0.0140342 0.0217877
RightToes  -1.16417e-010 0 -3.6325e-017
Spine  18.4391 -3.56983 8.00788
Spine1  -0.954387 -3.0986 2.80381
HEad  -15.0968 12.3048 -13.3729
LeftShoulder1  8.88727 -17.2839 -36.6264
LeftArm  -39.3418 -53.785 -23.3187
LeftForeArm  132.537 -81.8829 -86.0741
LeftHand  -0.244104 0.0205437 5.32207
RightShoulder  4.2109 10.6425 23.5714
RightArm  -7.65633 60.3773 41.9902
RightForeArm  8.71609 39.4121 8.11791
RightHand  -0.695813 -1.33219 -21.0123
LeftUpLeg  -3.56133 9.36834 6.78441
LeftLeg  4.50454 15.7907 -4.13688
LeftFoot  2.38869 0.728056 -6.16423
LeftToes  -2.09216e-011 1.96776e-011 -5.83545e-012
208
root  69.2173 40.0366 -6.84226 -122.075 -85.1936 122.426
RightUpLeg  -11.8294 -12.8508 -8.16489
RightLeg  14.7865 1.01997 1.76318
RightFoot  -1.16645 0.00272457 -0.119517
RightToes  -1.16417e-010 0 -3.6325e-017
Spine  17.3857 -2.50621 10.4449
Spine1  0.54477 -0.94829 -1.48048
HEad  -16.0587 8.64489 -10.481
LeftShoulder1  8.8963 -17.6638 -35.9155
LeftArm  -44.5007 -55.9748 -28.0901
LeftForeArm  137.058 -81.6649 -95.7515
LeftHand  -0.244104 0.0205437 5.32207
RightShoulder  3.54571 10.135 19.556
RightArm  -12.7323 69.4449 38.0302
RightForeArm  8.14457 16.1482 3.96895
RightHand  0.0894034 -6.29598 -14.0528
LeftUpLeg  -3.74181 8.22087 6.76974
LeftLeg  3.30217 16.7566 -4.31176
LeftFoot  3.03837 0.722699 -5.87212
LeftToes  -2.09216e-011 1.96776e-011 -5.83545e-012
